<mxfile host="app.diagrams.net" modified="2023-06-19T08:30:56.358Z" agent="Mozilla/5.0 (Macintosh; Intel Mac OS X 10_15_7) AppleWebKit/537.36 (KHTML, like Gecko) Chrome/114.0.0.0 Safari/537.36" version="21.5.0" etag="jVclr_AM_o-TfrotkJJD" type="github">
  <diagram name="Page-1" id="n7ncEpwMYy8VZJisxZRi">
    <mxGraphModel>
      <root>
        <mxCell id="0" />
        <mxCell id="1" parent="0" />
      </root>
    </mxGraphModel>
  </diagram>
</mxfile>
